# xmcd
# 
# Track frame offsets:
#     150
#     10972
#     26510
#     40847
#     56195
#     64930
#     82365
#     94697
#     110882
#     123907
# 
# Disc length: 1817
# 
# Revision: 0
# Processed by: cddbd v1.5.2PL0 Copyright (c) Steve Scherf et al.
# Submitted via: fre:ac v1.0.31
# 
DISCID=8b07170a
DTITLE=Elis Regina - Folha O Melhor de Elis Regina
DYEAR=1973
DGENRE=MPB
TTITLE0=Oriente
TTITLE1=O Caçador de Esmeralda
TTITLE2=Doente Morena
TTITLE3=Agnus Sei
TTITLE4=Meio do Campo
TTITLE5=Cabaré
TTITLE6=Ladeira da Preguiça
TTITLE7=Folhas secas
TTITLE8=Comadre
TTITLE9=É Com Esse Que Eu Vou
EXTD=Elis (1973)
EXTT0=
EXTT1=
EXTT2=
EXTT3=
EXTT4=
EXTT5=
EXTT6=
EXTT7=
EXTT8=
EXTT9=
PLAYORDER=
